<?xml version="1.0" encoding="UTF-8"?><svg enable-background="new 0 0 791.8 173.1" version="1.1" viewBox="0 0 791.8 173.1" xml:space="preserve" xmlns="http://www.w3.org/2000/svg"><style type="text/css">.st0{fill:#5cbfc9;}.st1{fill:#252954;}.st2{fill:#fbc027;}</style><title>Annuaire WebRankInfo</title><path class="st0" d="M13.3,9.8C3.1,9.8-3.3,20.5,1.8,29.1l68.1,114.2c5.1,8.6,17.9,8.6,23,0l13.1-22c0.7-1.3,0.7-2.8,0-4.1    L41.7,11.8c-0.7-1.2-2.1-2-3.6-2H13.3z"/><path class="st1" d="m87.2 53c-3.7 0-6 3.9-4.1 6.9l52.7 88.1c1.5 2.5 5.1 2.5 6.6 0l19.9-35.3c0.7-1.3 0.7-2.8 0-4.1l-31.9-53.6c-0.7-1.2-2.1-2-3.6-2h-39.6z"/><path class="st2" d="m160.3 27.4c4.6-7.6-1.1-17.2-10.2-17.2h-34c-1.9 0-3 2-2.1 3.5l25.5 41.8c0.9 1.5 3.2 1.5 4.2 0l16.6-28.1z"/><path class="st1" d="m233.9 64.6h-6.1l-4.3-12.2h-23.5l-4.3 12.2h-6.1l19.7-53.7h4.8l19.8 53.7zm-12.1-17.1l-9.9-28.4-10.1 28.4h20z"/><path class="st1" d="m264.8 64.6h-5.4v-22.9c0-1.6-0.2-3.1-0.7-4.3-0.4-1.3-1-2.3-1.8-3.1s-1.7-1.4-2.8-1.8-2.4-0.6-3.9-0.6c-2.9 0-5.1 0.9-6.8 2.6s-2.5 4.1-2.5 7.3v22.9h-5.4v-37.3h5.4v4.1c1.4-1.5 2.9-2.7 4.6-3.4s3.6-1.1 5.8-1.1c4 0 7.2 1.2 9.5 3.5 2.6 2.5 3.9 6 3.9 10.4v23.7z"/><path class="st1" d="m301.1 64.6h-5.4v-22.9c0-1.6-0.2-3.1-0.7-4.3-0.4-1.3-1-2.3-1.8-3.1s-1.7-1.4-2.8-1.8-2.4-0.6-3.9-0.6c-2.9 0-5.1 0.9-6.8 2.6s-2.5 4.1-2.5 7.3v22.9h-5.2v-37.3h5.4v4.1c1.4-1.5 2.9-2.7 4.6-3.4s3.6-1.1 5.8-1.1c4 0 7.2 1.2 9.5 3.5 2.6 2.5 3.9 6 3.9 10.4v23.7z"/><path class="st1" d="m337.1 64.6h-5.3v-4.2c-1.3 1.5-2.8 2.6-4.6 3.4s-3.8 1.2-5.8 1.2c-4.1 0-7.3-1.2-9.6-3.5-1.3-1.3-2.2-2.8-2.8-4.5s-0.9-3.7-0.9-5.9v-23.7h5.4v22.9c0 3.2 0.8 5.6 2.4 7.3s3.8 2.5 6.6 2.5c2.9 0 5.1-0.9 6.8-2.6s2.5-4.1 2.5-7.3v-22.8h5.4v37.2z"/><path class="st1" d="m371.1 64.6h-5.4v-3.6c-1.5 1.5-3.1 2.5-4.6 3.1-1.6 0.6-3.6 0.9-6.1 0.9s-4.6-0.3-6.3-0.8-3.1-1.4-4.2-2.6c-1.9-1.9-2.8-4.4-2.8-7.6 0-3.3 1.1-5.9 3.3-7.8s5.4-2.9 9.5-2.9h11.2v-3.6c0-2.8-0.7-4.8-2.2-6.2-1.5-1.3-3.9-2-7.3-2-2.3 0-4.2 0.3-5.6 0.9s-2.6 1.7-3.8 3.3l-3.7-3.4c1.1-1.4 2.2-2.5 3.5-3.3s2.7-1.4 4.3-1.7 3.4-0.5 5.4-0.5c2.6 0 4.8 0.3 6.6 0.8s3.4 1.3 4.6 2.4c1.2 1 2.1 2.3 2.7 3.8s0.9 3.3 0.9 5.4v25.4zm-5.4-13.1v-4h-10.4c-5.5 0-8.3 2.2-8.3 6.5 0 2.1 0.7 3.7 2.1 4.8 1.4 1 3.5 1.6 6.4 1.6 1.9 0 3.5-0.2 4.8-0.5s2.5-1 3.6-2c1.2-1.2 1.8-3.3 1.8-6.4z"/><path class="st1" d="m384.8 13.5c0 0.7-0.2 1.3-0.5 1.8-0.3 0.6-0.8 1-1.4 1.3s-1.2 0.5-1.9 0.5-1.3-0.2-1.8-0.5c-0.6-0.3-1-0.8-1.3-1.3-0.3-0.6-0.5-1.2-0.5-1.8 0-0.7 0.2-1.3 0.5-1.9s0.8-1 1.3-1.3c0.6-0.3 1.2-0.5 1.8-0.5 0.5 0 1 0.1 1.4 0.3 0.5 0.2 0.9 0.5 1.2 0.8 0.3 0.4 0.6 0.8 0.8 1.2 0.3 0.5 0.4 0.9 0.4 1.4zm-1.1 51.1h-5.4v-37.2h5.4v37.2z"/><path class="st1" d="m416.1 30.5l-4 4.1c-1-1-2-1.7-2.9-2.1s-2.1-0.6-3.5-0.6c-1.8 0-3.3 0.4-4.7 1.3s-2.4 2.1-3.1 3.6-1.1 3.2-1.1 5.1v22.8h-5.4v-37.3h5.4v4.6c1-1.5 2.5-2.8 4.4-3.6 1.9-0.9 3.9-1.3 6-1.3 3.6-0.1 6.6 1.1 8.9 3.4z"/><path class="st1" d="m445.5 47.5h-25.1c0 4.1 1 7.2 2.9 9.4s4.6 3.3 8.1 3.3c2.1 0 3.8-0.3 5.3-1 1.4-0.6 2.9-1.7 4.5-3.2l3.7 3.2c-2 2-4 3.5-6 4.4s-4.5 1.3-7.6 1.3c-3.3 0-6.1-0.7-8.6-2-2.4-1.4-4.3-3.5-5.7-6.3-1.3-2.8-2-6.4-2-10.7 0-3 0.3-5.7 1-8s1.7-4.3 3-6c1.3-1.6 2.9-2.9 4.8-3.8s4-1.3 6.3-1.3c3.1 0 5.9 0.7 8.2 2.2s4.1 3.6 5.2 6.3c1.2 2.7 1.8 5.9 1.8 9.5v2.7zm-5.4-4.1c-0.1-2.6-0.5-4.7-1.1-6.2-0.7-1.7-1.8-3.1-3.4-4.1s-3.3-1.5-5.2-1.5-3.7 0.5-5.2 1.5c-1.6 1-2.7 2.4-3.4 4.1-0.6 1.5-1 3.6-1.1 6.2h19.4z"/><path class="st1" d="m285.9 73.3l-20.8 77.4h-12.6l-14.3-47-14.2 47h-12.6l-20.7-77.4h15.8l12 48.8 14.1-48.8h11.4l14.1 48.8 12.1-48.8h15.7z"/><path class="st1" d="m332.4 126.8h-35.5c0 3.7 1.1 6.8 3.3 9.1 2.2 2.4 5.2 3.5 9.1 3.5 3 0 5.4-0.4 7.2-1.2s3.7-2.2 5.6-4.1l8.6 8.3c-3.1 3.1-6.2 5.3-9.5 6.8-3.2 1.4-7.2 2.2-12.1 2.2-7.6 0-13.9-2.2-18.9-6.6-4.9-4.4-7.4-11.9-7.4-22.4 0-6 1-11.2 3.1-15.5 2.1-4.4 4.9-7.7 8.7-10 3.7-2.3 8-3.4 12.9-3.4 5.1 0 9.5 1.2 13.2 3.5s6.6 5.5 8.5 9.7 2.9 8.8 2.9 13.9v6.2zm-13.9-9.7c-0.1-2.3-0.5-4.3-1.3-6.1-0.8-1.7-2-3.1-3.6-4.2s-3.6-1.6-5.9-1.6c-2.2 0-4.2 0.5-5.8 1.6s-2.9 2.5-3.7 4.2c-0.8 1.9-1.2 4-1.3 6.1h21.6z"/><path class="st1" d="m384.1 122.3c0 5.9-0.3 10.7-1 14.5s-2.2 6.9-4.7 9.4c-1.6 1.6-3.6 2.8-6 3.7s-5 1.4-7.8 1.4c-3 0-5.6-0.5-7.9-1.4-2.2-0.9-4.3-2.5-6.3-4.6v5.3h-13.7v-77.3h14.1v25.8c3.3-3.8 7.9-5.7 13.7-5.7 2.8 0 5.4 0.5 7.8 1.4s4.4 2.2 6 3.7c2.5 2.5 4.1 5.6 4.7 9.4 0.8 3.8 1.1 8.6 1.1 14.4zm-14.1 0c0-5.4-0.6-9.4-1.9-12.1-1.2-2.7-3.8-4-7.7-4-2.7 0-4.8 0.7-6.2 2s-2.3 3.1-2.7 5.4-0.7 5.2-0.7 8.7c0 3.6 0.2 6.5 0.7 8.8s1.4 4.1 2.8 5.5 3.4 2 6.1 2c3.9 0 6.5-1.4 7.7-4.1 1.3-2.7 1.9-6.8 1.9-12.2z"/><path class="st1" d="m465.2 150.7h-17.6l-15.1-30.9h-10.8v30.9h-15.1v-77.4h30.3c5.1 0 9.6 1.1 13.4 3.2s6.7 5 8.7 8.6 3 7.6 3 12c0 5.1-1.3 9.4-3.9 12.9s-6 5.9-10.2 7.5l17.3 33.2zm-18.3-53.7c0-2-0.5-3.7-1.4-5.3-0.9-1.5-2.2-2.7-3.9-3.6s-3.6-1.3-5.8-1.3h-14.2v20.4h14.2c3.3 0 5.9-0.9 7.9-2.8 2.2-1.9 3.2-4.3 3.2-7.4z"/><path class="st1" d="m510.7 150.7h-13.8v-4.9c-1.8 1.9-3.8 3.3-6 4.1-2.1 0.9-4.8 1.3-7.9 1.3-3.2 0-5.9-0.4-8.3-1.2s-4.4-2.1-6.1-3.7c-3.1-3.2-4.7-7.4-4.7-12.7 0-3 0.7-5.8 2.2-8.3s3.6-4.5 6.5-5.9c2.9-1.5 6.5-2.2 10.7-2.2h13.4v-2.8c0-3.2-0.8-5.4-2.5-6.8s-4.3-2.1-8-2.1c-2.7 0-4.8 0.3-6.3 1s-3 1.9-4.6 3.7l-9-8.8c2.6-2.9 5.5-5 8.6-6.1s7-1.7 11.9-1.7c7.9 0 13.9 1.7 18 5 4.1 3.4 6.1 8.4 6.1 15v37.1zm-14.1-20.9v-3.1h-11.2c-2.5 0-4.5 0.6-5.8 1.7-1.4 1.1-2.1 2.7-2.1 4.7 0 2.1 0.7 3.7 2 4.8 1.4 1.2 3.4 1.7 6.1 1.7 2.1 0 3.8-0.2 5.2-0.5s2.6-1.1 3.8-2.2c1.3-1.2 2-3.5 2-7.1z"/><path class="st1" d="m564.4 150.7h-14.1v-34.2c0-3.6-0.9-6.2-2.7-7.8-1.8-1.7-4-2.5-6.6-2.5s-4.8 0.8-6.7 2.5-2.8 4.3-2.8 7.8v34.2h-14.1v-56.6h13.8v5.2c1.8-1.9 3.9-3.3 6.4-4.3s5-1.5 7.7-1.5c5.5 0 10 1.7 13.4 5 2.2 2.2 3.7 4.5 4.5 7.1 0.8 2.5 1.2 5.6 1.2 9v36.1z"/><path class="st1" d="M622.5,150.7H605l-14-23.6l-5.9,6.7v16.8H571V73.3h14.1v43.9l18.8-23.2H621l-20.2,22.8L622.5,150.7z"/><path class="st1" d="m655.8 150.7h-15.1v-77.4h15.1v77.4z"/><path class="st1" d="m711.1 150.7h-14.1v-34.2c0-3.6-0.9-6.2-2.7-7.8-1.8-1.7-4-2.5-6.6-2.5s-4.8 0.8-6.7 2.5-2.8 4.3-2.8 7.8v34.2h-14.1v-56.6h13.8v5.2c1.8-1.9 3.9-3.3 6.4-4.3s5-1.5 7.7-1.5c5.5 0 10 1.7 13.4 5 2.2 2.2 3.7 4.5 4.5 7.1 0.8 2.5 1.2 5.6 1.2 9v36.1z"/><path class="st1" d="m744 106.5h-10.4v44.2h-14.2v-44.2h-5.8v-10.8h5.8v-7.1c0-2.9 0.6-5.5 1.8-8s3.1-4.5 5.6-6 5.6-2.3 9.2-2.3h8v12.1h-5.5c-3.3 0-4.9 1.7-4.9 5.1v6.2h10.4v10.8z"/><path class="st1" d="m791.8 122.3c0 3.5-0.2 6.6-0.6 9.2-0.4 2.7-1 5-2 7.1s-2.3 4-3.9 5.7c-4.4 4.6-10.3 7-17.7 7-7.3 0-13.2-2.3-17.5-7-1.2-1.3-2.3-2.6-3.1-4.1s-1.5-3.1-2-4.9-0.9-3.9-1.1-6.2-0.3-4.6-0.3-6.9 0.1-4.6 0.3-6.9 0.5-4.3 1-6.1 1.2-3.4 2-4.8c0.8-1.5 1.9-2.8 3.1-4.1 4.4-4.6 10.2-7 17.5-7 7.4 0 13.3 2.3 17.7 7 2.4 2.5 4.1 5.5 5.1 8.8 1 3.4 1.5 7.8 1.5 13.2zm-14.3 0c0-3.6-0.2-6.4-0.6-8.5s-1.3-3.8-2.6-5.2c-1.7-1.7-3.9-2.5-6.6-2.5-2.6 0-4.8 0.8-6.5 2.5-1.3 1.4-2.2 3.2-2.6 5.4s-0.6 4.9-0.6 8.3 0.2 6.2 0.6 8.4 1.3 4 2.6 5.4c1.7 1.7 3.9 2.5 6.5 2.5 2.7 0 4.9-0.8 6.6-2.5 1.3-1.3 2.2-3.1 2.6-5.2s0.6-5 0.6-8.6z"/></svg>